<svg width="258" height="258" viewBox="0 0 258 258" fill="none" xmlns="http://www.w3.org/2000/svg">
<path d="M68.5 83.5H189M147.5 124.5H188M77.5 245.5H180.5C216.399 245.5 245.5 216.399 245.5 180.5V77.5C245.5 41.6015 216.399 12.5 180.5 12.5H77.5C41.6015 12.5 12.5 41.6015 12.5 77.5V180.5C12.5 216.399 41.6015 245.5 77.5 245.5Z" stroke="black" stroke-width="25" stroke-linecap="round"/>
<path d="M76.6744 149.625C77.5161 149.458 78.3577 149.458 79.1993 149.625C81.2193 150.126 82.4396 151.296 82.8605 153.133C82.9446 153.468 82.9867 153.76 82.9867 154.01L82.2292 162.53L81.3455 170.549L87.784 165.788C92.2447 162.53 94.6013 160.86 94.8538 160.776C95.1904 160.609 95.7796 160.526 96.6212 160.526C98.052 160.693 99.1882 161.235 100.03 162.154C101.629 163.908 101.924 165.829 100.914 167.918C100.577 168.669 99.5669 169.463 97.8837 170.298C97.2945 170.549 95.7375 171.259 93.2126 172.428L85.7641 175.936L84.5016 176.563L91.9501 179.945C97.3366 182.368 100.24 183.913 100.661 184.581C100.745 184.665 100.829 184.832 100.914 185.082C101.924 187.171 101.629 189.092 100.03 190.846C99.1882 191.764 98.052 192.307 96.6212 192.474C95.7796 192.474 95.1904 192.391 94.8538 192.224C94.6013 192.14 92.2447 190.47 87.784 187.212C83.5758 184.122 81.4297 182.535 81.3455 182.451L82.2292 190.345C82.7342 196.191 82.9867 199.073 82.9867 198.99C82.9867 200.911 81.9767 202.289 79.9568 203.124C79.3677 203.375 78.7364 203.5 78.0631 203.5C75.7907 203.5 74.2337 202.498 73.392 200.493C73.1395 199.992 73.0133 199.491 73.0133 198.99C73.0133 199.073 73.2658 196.191 73.7708 190.345C74.3599 185.166 74.6545 182.535 74.6545 182.451L68.216 187.212C63.7553 190.47 61.3987 192.14 61.1462 192.224C60.8096 192.391 60.2204 192.474 59.3788 192.474C57.948 192.307 56.8118 191.764 55.9701 190.846C54.371 189.092 54.0765 187.171 55.0864 185.082C55.4231 184.331 56.4331 183.537 58.1163 182.702C58.7055 182.451 60.2625 181.741 62.7874 180.572L70.2359 177.064L71.4984 176.437L64.0499 173.055C58.6634 170.632 55.7597 169.087 55.3389 168.419C55.2548 168.335 55.1706 168.168 55.0864 167.918C54.0765 165.829 54.371 163.908 55.9701 162.154C56.8118 161.235 57.948 160.693 59.3788 160.526C60.2204 160.526 60.8096 160.609 61.1462 160.776C61.3987 160.86 63.7553 162.53 68.216 165.788C72.4242 168.878 74.5703 170.465 74.6545 170.549L73.7708 162.53C73.2658 156.934 73.0133 154.094 73.0133 154.01C73.0133 153.008 73.392 152.048 74.1495 151.129C74.907 150.377 75.7486 149.876 76.6744 149.625Z" fill="black"/>
</svg>
